<?xml version="1.0" encoding="utf-8"?>
<?xml-stylesheet type="text/xsl" href="rss1.xsl"?>
<rss version="2.0" xmlns:atom="http://www.w3.org/2005/Atom" xmlns:content="http://purl.org/rss/1.0/modules/content/" xmlns:dc="http://purl.org/dc/elements/1.1/" xmlns:media="http://search.yahoo.com/mrss/">
<channel>
 <title>Getty</title>
 <link>http://www.gettyimg.com/</link>
 <atom:link href="http://www.gettyimg.com/" rel="self" type="application/rss+xml" />

 
                <item>
                <title><![CDATA[【PRORES HD】Astrid S - It's Ok [ProRes 1080]]]></title>
                <link><![CDATA[https://sharemania.us/threads/astrid-s-its-ok-prores-1080.239866/]]></link>
                <description><![CDATA[<article>
<blockquote class="messageText SelectQuoteContainer ugc baseHtml">
<div style="text-align: center"><img src="https://i.ibb.co/TTjcDtr/20240314021134.gif" class="bbCodeImage LbImage" alt="[​IMG]" data-url="https://i.ibb.co/TTjcDtr/20240314021134.gif" style=""><br>
​</div>
<div class="ToggleTriggerAnchor bbCodeSpoilerContainer">
<button type="button" class="button bbCodeSpoilerButton ToggleTrigger Tooltip JsOnly" data-target="> .SpoilerTarget"><span>Spoiler: <span class="SpoilerTitle">ProRes</span></span></button>
<div class="SpoilerTarget bbCodeSpoilerText">
<div class="bbCodeBlock bbCodeCode">
<div class="type">Code:</div>
<pre>General
Complete name                            : Astrid S - It´s OK.mp4
Format                                   : MPEG-4
Format profile                           : QuickTime
Codec ID                                 : qt   0000.00 (qt  )
File size                                : 4.50 GiB
Duration                                 : 3 min 31 s
Overall bit rate mode                    : Variable
Overall bit rate                         : 183 Mb/s
Frame rate                               : 25.000 FPS
Movie name                               : Astrid S - It´s OK ONLINE 1_04
Description                              : This video is about Astrid S - It´s OK ONLINE 1_04
Encoded date                             : 2020-09-24 18:29:54 UTC
Tagged date                              : 2020-09-24 18:31:38 UTC
Writing library                          : Apple QuickTime
com.apple.quicktime.keywords             : Prosjekter,import,Excessive Shake,a003k1z5,Wide Shot,One Person,a001k1z5,a004k1z5,a002k1z5
com.apple.quicktime.author               : Sigurd Fossen
com.apple.quicktime.title                : Astrid S - It´s OK ONLINE 1_04

Video
ID                                       : 2
Format                                   : ProRes
Format version                           : Version 0
Format profile                           : 422 HQ
Codec ID                                 : apch
Duration                                 : 3 min 31 s
Bit rate mode                            : Variable
Bit rate                                 : 180 Mb/s
Width                                    : 1 920 pixels
Height                                   : 1 080 pixels
Display aspect ratio                     : 16:9
Frame rate mode                          : Constant
Frame rate                               : 25.000 FPS
Color space                              : YUV
Chroma subsampling                       : 4:2:2
Scan type                                : Progressive
Bits/(Pixel*Frame)                       : 3.478
Stream size                              : 4.43 GiB (99%)
Title                                    : Core Media Video
Writing library                          : Apple
Encoded date                             : 2020-09-24 18:29:54 UTC
Tagged date                              : 2020-09-24 18:31:38 UTC
Color primaries                          : BT.709
Transfer characteristics                 : BT.709
Matrix coefficients                      : BT.709

Audio
ID                                       : 1
Format                                   : PCM
Format settings                          : Little / Signed
Codec ID                                 : lpcm
Duration                                 : 3 min 31 s
Bit rate mode                            : Constant
Bit rate                                 : 2 304 kb/s
Channel(s)                               : 2 channels
Channel layout                           : L R
Sampling rate                            : 48.0 kHz
Bit depth                                : 24 bits
Stream size                              : 58.0 MiB (1%)
Title                                    : Core Media Audio
Encoded date                             : 2020-09-24 18:29:54 UTC
Tagged date                              : 2020-09-24 18:31:38 UTC

Other
ID                                       : 3
Type                                     : Time code
Format                                   : QuickTime TC
Duration                                 : 3 min 31 s
Frame rate                               : 25.000 FPS
Time code of first frame                 : 00:00:00:00
Time code of last frame                  : 00:03:31:03
Time code, stripped                      : Yes
Title                                    : Core Media Time Code
Encoded date                             : 2020-09-24 18:29:54 UTC
Tagged date                              : 2020-09-24 18:31:38 UTC</pre>
</div><div style="text-align: center">​</div></div>
</div><div style="text-align: center"><br>
<div class="bbCodeBlock bbCodeVfcHH HiddenContent">
<div class="attribution type">Hidden Content:</div>
<blockquote>You must reply before you can see the hidden data contained here.</blockquote>
</div></div>
<div class="messageTextEndMarker">&nbsp;</div>
</blockquote>
</article>]]></description>
                <author><![CDATA[fstambuk]]></author>
                </item>

                </channel></rss>